<mxfile host="app.diagrams.net" modified="2023-10-20T01:43:00.384Z" agent="Mozilla/5.0 (Windows NT 10.0; Win64; x64) AppleWebKit/537.36 (KHTML, like Gecko) Chrome/118.0.0.0 Safari/537.36" version="22.0.5" etag="Nn2fTpUaXEMG5_Mp25ff" type="github">
  <diagram name="Trang-1" id="AY7N2g_csalfjqawqREU">
    <mxGraphModel>
      <root>
        <mxCell id="0" />
        <mxCell id="1" parent="0" />
      </root>
    </mxGraphModel>
  </diagram>
</mxfile>
